<?xml version="1.0" encoding="utf-8"?>
<!-- Generator: Adobe Illustrator 27.0.1, SVG Export Plug-In . SVG Version: 6.00 Build 0)  -->
<svg version="1.1" id="Слой_1" xmlns="http://www.w3.org/2000/svg" xmlns:xlink="http://www.w3.org/1999/xlink" x="0px" y="0px"
	 viewBox="0 0 860.61 129.6" style="enable-background:new 0 0 860.61 129.6;" xml:space="preserve">
<style type="text/css">
	.st0{fill:#101010;}
	.st1{fill:#FFFFFF;}
	.st2{fill-rule:evenodd;clip-rule:evenodd;fill:#0069FF;}
</style>
<path class="st0" d="M813.98,129.6H46.63C20.88,129.6,0,108.72,0,82.97V46.63C0,20.88,20.88,0,46.63,0h767.35
	c25.75,0,46.63,20.88,46.63,46.63v36.34C860.61,108.72,839.73,129.6,813.98,129.6z"/>
<path class="st1" d="M127.14,87.69h-9.78l-4.74-25.9l-12.24,26.82h-2.79L85.19,61.78l-5.32,25.9h-9l9.99-46.69h3.89l14.45,30.3
	l14.18-30.3h3.92L127.14,87.69z M141.28,67.71h6.78c5.23,0,9.09,0.8,11.59,2.39c2.5,1.59,3.75,4.08,3.75,7.46
	c0,3.48-1.3,6.03-3.89,7.67c-2.59,1.64-7.13,2.45-13.63,2.45H132.7V55.1h8.59V67.71z M141.28,81.55h6.48c2.59,0,4.36-0.32,5.32-0.95
	c0.98-0.66,1.47-1.62,1.47-2.9c0-2.57-2.07-3.85-6.2-3.85h-7.06V81.55z M176.8,87.69h-8.59V56.26l8.59-2.15V87.69z M233.75,87.69
	h-8.55V74.16h-14.04v13.53h-8.59V55.1h8.59v12.75h14.04V55.1h8.55V87.69z M278.4,85.68l-6.07,2.93c-1.73-1.61-2.59-3.23-2.59-4.84
	c-3.2,3.23-7.35,4.84-12.44,4.84c-5,0-9.1-1.61-12.3-4.84c-3.2-3.23-4.81-7.36-4.81-12.41c0-4.75,1.68-8.8,5.04-12.17
	c3.36-3.39,7.48-5.08,12.34-5.08c5.09,0,9.1,1.53,12.03,4.6l7.02-3.61v22.6c0,2.61,0.15,4.43,0.44,5.45
	C277.37,84.15,277.81,84.99,278.4,85.68z M258.63,81.62c2.89,0,5.2-0.95,6.95-2.86c1.75-1.93,2.62-4.37,2.62-7.33
	c0-3.14-0.84-5.63-2.52-7.5c-1.68-1.89-3.99-2.83-6.92-2.83c-2.98,0-5.34,0.95-7.09,2.86c-1.73,1.89-2.59,4.31-2.59,7.26
	c0,2.98,0.85,5.45,2.56,7.43C253.37,80.63,255.7,81.62,258.63,81.62z"/>
<path class="st2" d="M407.04,20.63c-24.39-2.57-46.25,15.12-48.82,39.52c-2.57,24.39,15.12,46.25,39.52,48.82
	c24.39,2.57,46.25-15.12,48.82-39.52c0.32-3.05,0.33-6.12,0.01-9.17C444.46,39.37,427.95,22.81,407.04,20.63z M405.61,88.3
	c-12.97,1.74-24.89-7.36-26.63-20.33s7.36-24.89,20.33-26.63s24.89,7.36,26.63,20.33c0.28,2.07,0.28,4.16,0.01,6.23
	C424.56,78.52,416.22,86.88,405.61,88.3z M470.33,22.39c-5.72,0.01-10.35,4.66-10.34,10.39c0,0.71,0.08,1.42,0.22,2.12
	c0.97,4.88,5.54,8.22,10.5,8.22h28.83l-44.87,59.38c-0.99,1.3-0.73,3.16,0.57,4.15c0.51,0.39,1.13,0.6,1.77,0.6h70.38
	c4.96,0,9.53-3.34,10.5-8.22c1.18-5.6-2.4-11.1-8-12.28c-0.69-0.15-1.4-0.22-2.11-0.22h-35.13l44.83-59.33
	c1-1.32,0.74-3.19-0.58-4.18c-0.52-0.39-1.15-0.6-1.79-0.61L470.33,22.39L470.33,22.39z M751.57,22.63
	c-4.8,1.14-8.16,5.47-8.08,10.4v34.5l-55.9-44.49c-1.29-1.02-3.16-0.81-4.18,0.48c-0.42,0.53-0.65,1.18-0.64,1.86v71.24
	c-0.08,4.93,3.28,9.26,8.08,10.4c5.58,1.23,11.1-2.3,12.33-7.88c0.16-0.74,0.24-1.49,0.24-2.24v-34.8l55.91,44.49
	c1.29,1.02,3.16,0.81,4.18-0.48c0.42-0.53,0.65-1.18,0.64-1.86v-71.5c0.01-5.72-4.62-10.35-10.34-10.36
	C753.05,22.39,752.3,22.47,751.57,22.63L751.57,22.63z M606.01,41.13c23.65,0,41.31,12.5,41.31,23.67s-17.67,23.67-41.31,23.67
	s-41.31-12.5-41.31-23.67S582.36,41.13,606.01,41.13 M606.01,20.41c-34.23,0-61.97,19.88-61.97,44.39s27.75,44.39,61.97,44.39
	s61.97-19.88,61.97-44.39S640.23,20.41,606.01,20.41z"/>
</svg>
