<?xml version="1.0" encoding="utf-8"?>
<!-- Generator: Adobe Illustrator 27.0.1, SVG Export Plug-In . SVG Version: 6.00 Build 0)  -->
<svg version="1.1" id="Слой_1" xmlns="http://www.w3.org/2000/svg" xmlns:xlink="http://www.w3.org/1999/xlink" x="0px" y="0px"
	 viewBox="0 0 860.61 129.6" style="enable-background:new 0 0 860.61 129.6;" xml:space="preserve">
<style type="text/css">
	.st0{fill:#FFFFFF;}
	.st1{fill:#F6C945;}
	.st2{fill:#FF0000;}
	.st3{fill:#333333;}
	.st4{fill:#101010;}
</style>
<path class="st0" d="M813.98,129.6H46.63C20.88,129.6,0,108.72,0,82.97V46.63C0,20.88,20.88,0,46.63,0h767.35
	c25.75,0,46.63,20.88,46.63,46.63v36.34C860.61,108.72,839.73,129.6,813.98,129.6z"/>
<path class="st1" d="M766.04,111.26H563.9V18.34h202.14l27.45,46.46L766.04,111.26z M568.9,106.26h194.29l24.5-41.46l-24.5-41.46
	H568.9V106.26z"/>
<g>
	<path class="st2" d="M361.19,30.93h-4.76c-1.47,0-2.89,0.3-4.26,0.92c-1.38,0.61-2.6,1.59-3.67,2.93
		c-1.07,1.35-1.92,3.07-2.57,5.18c-0.64,2.11-0.96,4.62-0.96,7.56c0,2.87,0.35,5.3,1.06,7.28c0.7,1.99,1.63,3.62,2.8,4.91
		c1.16,1.28,2.47,2.21,3.94,2.79c1.46,0.58,2.99,0.87,4.58,0.87h3.84V30.93L361.19,30.93z M342.86,95.55h-8.34l14.85-27.41
		c-4.34-2.08-7.44-4.84-9.3-8.29c-1.86-3.45-2.8-7.56-2.8-12.33c0-3.67,0.52-6.9,1.56-9.71c1.03-2.81,2.45-5.17,4.22-7.1
		c1.77-1.93,3.83-3.38,6.19-4.35c2.36-0.98,4.84-1.46,7.47-1.46h11.73v70.66h-7.25V69.34h-4.76L342.86,95.55z"/>
	<path class="st3" d="M531.66,89.27c-1.4,0.39-2.78,0.59-4.12,0.59c-3.54,0-6.17-1.59-7.88-4.77c-1.71-3.18-2.57-7.55-2.57-13.11
		l0,0c0-2.38,0.18-4.72,0.55-7.01c0.37-2.29,0.89-4.32,1.56-6.1c0.67-1.77,1.53-3.21,2.57-4.31c1.04-1.1,2.2-1.65,3.48-1.65
		c1.1,0,2.19,0.33,3.25,1.01c1.07,0.67,2.03,1.5,2.89,2.48l3.76-6.33c-1.28-0.92-2.73-1.65-4.35-2.2c-1.62-0.55-3.44-0.82-5.45-0.82
		c-2.26,0-4.38,0.64-6.33,1.92c-1.95,1.28-3.64,3.09-5.04,5.4c-1.4,2.32-2.52,5.13-3.34,8.43c-0.83,3.3-1.24,6.97-1.24,11
		c0,7.33,1.45,12.95,4.35,16.86c2.9,3.91,6.71,5.86,11.41,5.86c2.2,0,4.17-0.32,5.91-0.96c1.74-0.64,3.31-1.39,4.72-2.25l-0.73-5.23
		C534.21,88.49,533.07,88.87,531.66,89.27z"/>
	<polygon class="st3" points="396.2,66.86 385.39,66.86 385.39,48.25 378.05,48.25 378.05,95.46 385.39,95.46 385.39,72.91 
		396.2,72.91 396.2,95.46 403.44,95.46 403.44,48.26 396.2,48.26 	"/>
	<path class="st3" d="M460.17,47.06c-2.56,0-4.76,0.75-6.59,2.25c-1.83,1.49-3.34,3.48-4.54,5.96c-1.19,2.47-2.08,5.31-2.66,8.53
		c-0.58,3.2-0.87,6.55-0.87,10.03c0,7.21,1.44,12.8,4.31,16.77c2.87,3.97,6.69,5.95,11.46,5.95c2.32,0,4.42-0.32,6.28-0.96
		c1.86-0.64,3.56-1.39,5.09-2.25l0,0l-0.83-5.23c-0.85,0.37-2.03,0.75-3.53,1.15c-1.5,0.39-2.95,0.59-4.35,0.59
		c-3.73,0-6.46-1.44-8.2-4.31c-1.74-2.87-2.61-6.87-2.61-12h19.71v-4.03c0-7.39-1.17-12.99-3.49-16.77
		C467.02,48.96,463.96,47.06,460.17,47.06z M465.31,67.51h-12.1c0.12-2.08,0.34-4,0.64-5.78c0.3-1.77,0.73-3.31,1.29-4.63
		c0.55-1.32,1.22-2.34,2.01-3.07c0.8-0.73,1.71-1.09,2.75-1.09l0,0c1.47,0,2.65,1,3.57,2.98c0.92,1.99,1.5,4.78,1.74,8.39
		c0,0.43,0.02,0.83,0.05,1.19c0.03,0.37,0.04,0.7,0.04,1.01V67.51z"/>
	<path class="st3" d="M437.26,48.26h-20.53v4.03c0,2.87-0.04,5.9-0.14,9.08c-0.09,3.18-0.35,6.39-0.78,9.62
		c-0.43,3.24-1.05,6.45-1.88,9.62c-0.83,3.18-1.97,6.14-3.44,8.89h-2.84v15.21h6.51v-9.25h20.25v9.25h6.51V89.5h-3.67V48.26z
		 M430.02,89.5h-13.1c1.22-2.02,2.23-4.4,3.02-7.15c0.8-2.75,1.44-5.67,1.92-8.75c0.49-3.09,0.83-6.23,1.01-9.44
		c0.18-3.21,0.27-6.25,0.27-9.12v-0.92h6.87V89.5z"/>
	<polygon class="st3" points="506,48.25 498.21,48.25 488.22,68.78 487.39,69.7 487.39,48.25 480.06,48.25 480.06,95.46 
		487.39,95.46 487.39,71.17 488.22,72.18 499.49,95.46 507.65,95.46 507.65,95.45 494.46,69.52 	"/>
</g>
<g>
	<path class="st3" d="M618.32,66.04c-0.29,1.04-0.76,3.24-0.99,4.81h-0.17c-0.17-1.56-0.58-3.7-0.87-4.81l-7.01-26.47h-3.36v41.41
		h2.55V51.97c0-2.09-0.06-4.17-0.17-6.14h0.17c0.35,1.91,0.81,3.76,1.39,5.91l6.13,22.87l0,0h2.26l6.2-23.05
		c0.46-1.74,0.87-3.42,1.39-5.73h0.23c-0.12,2.09-0.23,4.17-0.23,6.14v29.01h2.78V39.58h-3.24L618.32,66.04z"/>
	<path class="st3" d="M649.24,59.68c0-5.79-2.72-8.46-7.53-8.46c-3.3,0-5.73,1.45-6.89,2.96l0.75,2.61
		c1.39-2.03,3.65-3.19,6.14-3.19c3.19,0,4.86,1.91,4.86,6.37v3.65h-3.18c-6.31,0-9.73,3.24-9.73,9.5c0,5.33,2.72,8.46,6.66,8.46
		c2.9,0,4.98-1.74,6.37-4.52c0.17,2.08,0.46,3.19,0.69,3.94h2.49c-0.34-1.1-0.64-3.36-0.64-5.39V59.68z M646.58,73.63
		c-1.04,3.13-2.95,5.73-5.67,5.73c-2.78,0-4.58-2.37-4.58-6.49c0-5.1,2.32-7.3,7.12-7.3h3.13V73.63z"/>
	<polygon class="st3" points="714.57,51.8 714.57,54.06 721.35,54.06 721.35,80.98 724.07,80.98 724.07,54.06 730.79,54.06 
		730.79,51.8 	"/>
	<path class="st3" d="M704.15,51.22c-4.92,0-8.51,5.62-8.51,15.18s2.84,15.18,9.04,15.18c4.63,0,6.83-3.3,6.83-3.3l-0.87-2.2
		c-0.02,0.03-2.04,3.13-5.9,3.13c-4.23,0-6.32-4.34-6.43-12.34h13.2C712.43,56.49,709.19,51.22,704.15,51.22z M708.96,64.72h-10.6
		c0.23-7.3,2.72-11.24,5.79-11.24h0C707.1,53.48,709.42,56.95,708.96,64.72z"/>
	<polygon class="st3" points="692.86,51.8 690.19,51.8 680.4,65.53 680.4,51.8 677.68,51.8 677.68,80.99 680.4,80.99 680.4,65.87 
		680.4,65.87 690.54,80.99 693.55,80.99 683.24,65.35 	"/>
	<path class="st3" d="M664.76,51.22c-3.24,0-5.39,2.61-6.66,5.39l-0.23-4.81h-2.37v38.23h2.72V78.96c1.1,1.45,3.01,2.55,5.21,2.55
		l0,0c5.44,0,9.04-5.27,9.04-15.99C672.47,57.07,669.63,51.22,664.76,51.22z M663.61,79.37L663.61,79.37
		c-2.61,0-4.23-1.16-5.39-3.54V59.5c1.27-3.13,3.47-5.91,6.08-5.91c3.36,0,5.44,4.52,5.44,12.17
		C669.74,74.97,667.31,79.37,663.61,79.37z"/>
</g>
<path class="st4" d="M127.14,87.69h-9.78l-4.74-25.9l-12.24,26.82h-2.79L85.19,61.78l-5.32,25.9h-9l9.99-46.69h3.89l14.45,30.3
	l14.18-30.3h3.92L127.14,87.69z M141.28,67.71h6.78c5.23,0,9.09,0.8,11.59,2.39c2.5,1.59,3.75,4.08,3.75,7.46
	c0,3.48-1.3,6.03-3.89,7.67c-2.59,1.64-7.13,2.45-13.63,2.45H132.7V55.1h8.59V67.71z M141.28,81.55h6.48c2.59,0,4.36-0.32,5.32-0.95
	c0.98-0.66,1.47-1.62,1.47-2.9c0-2.57-2.07-3.85-6.2-3.85h-7.06V81.55z M176.8,87.69h-8.59V56.26l8.59-2.15V87.69z M233.75,87.69
	h-8.55V74.16h-14.04v13.53h-8.59V55.1h8.59v12.75h14.04V55.1h8.55V87.69z M278.4,85.68l-6.07,2.93c-1.73-1.61-2.59-3.23-2.59-4.84
	c-3.2,3.23-7.35,4.84-12.44,4.84c-5,0-9.1-1.61-12.3-4.84c-3.2-3.23-4.81-7.36-4.81-12.41c0-4.75,1.68-8.8,5.04-12.17
	c3.36-3.39,7.48-5.08,12.34-5.08c5.09,0,9.1,1.53,12.03,4.6l7.02-3.61v22.6c0,2.61,0.15,4.43,0.44,5.45
	C277.37,84.15,277.81,84.99,278.4,85.68z M258.63,81.62c2.89,0,5.2-0.95,6.95-2.86c1.75-1.93,2.62-4.37,2.62-7.33
	c0-3.14-0.84-5.63-2.52-7.5c-1.68-1.89-3.99-2.83-6.92-2.83c-2.98,0-5.34,0.95-7.09,2.86c-1.73,1.89-2.59,4.31-2.59,7.26
	c0,2.98,0.85,5.45,2.56,7.43C253.37,80.63,255.7,81.62,258.63,81.62z"/>
</svg>
